<svg width="545" height="747" viewBox="0 0 545 747" fill="none" xmlns="http://www.w3.org/2000/svg">
<g filter="url(#filter0_d)">
<path fill-rule="evenodd" clip-rule="evenodd" d="M658.72 -242.205C740.825 -221.576 803.251 -144.701 832.964 -60.0556C860.177 17.4673 828.228 104.692 809.897 188.459C794.642 258.173 764.616 318.793 735.75 384.195C695.103 476.292 694.687 613.254 606.715 648.817C520.108 683.829 450.915 574.997 372.979 530.848C309.128 494.678 225.876 482.989 192.24 414.028C159.258 346.407 193.539 262.14 203.606 183.593C212.893 111.14 209.973 35.9138 248.659 -26.1419C289.415 -91.5187 354.96 -129.422 420.156 -163.774C497.382 -204.465 578.494 -262.362 658.72 -242.205Z" fill="#4871F7"/>
</g>
<defs>
<filter id="filter0_d" x="-3.05176e-05" y="-411" width="999.73" height="1157.01" filterUnits="userSpaceOnUse" color-interpolation-filters="sRGB">
<feFlood flood-opacity="0" result="BackgroundImageFix"/>
<feColorMatrix in="SourceAlpha" type="matrix" values="0 0 0 0 0 0 0 0 0 0 0 0 0 0 0 0 0 0 127 0"/>
<feOffset dy="1"/>
<feGaussianBlur stdDeviation="30"/>
<feColorMatrix type="matrix" values="0 0 0 0 0.968627 0 0 0 0 0.282353 0 0 0 0 0.305882 0 0 0 0.25 0"/>
<feBlend mode="normal" in2="BackgroundImageFix" result="effect1_dropShadow"/>
<feBlend mode="normal" in="SourceGraphic" in2="effect1_dropShadow" result="shape"/>
</filter>
</defs>
</svg>
