<svg width="453" height="425" viewBox="0 0 453 425" fill="none" xmlns="http://www.w3.org/2000/svg">
<path fill-rule="evenodd" clip-rule="evenodd" d="M202.243 0.369949C247.394 -0.560168 292.88 -1.31718 333.048 19.0295C378.045 41.8228 421.166 74.0222 439.441 120.522C458.179 168.201 459.205 226.636 431.666 269.966C405.62 310.946 344.231 306.89 303.687 334.116C265.162 359.985 248.32 417.066 202.243 424.024C155.376 431.102 111.95 398.349 75.3864 368.594C40.6145 340.297 10.2139 304.376 1.60729 260.747C-6.50518 219.623 18.0996 181.559 30.5909 141.514C43.3471 100.621 42.0226 51.7439 75.3521 24.3381C109.252 -3.53693 158.106 1.27919 202.243 0.369949Z" fill="#4871F7"/>
</svg>
